HIERARCHY
ROOT Hips
{
	OFFSET 0.00000 0.00000 0.00000
	CHANNELS 6 Xposition Yposition Zposition Zrotation Yrotation Xrotation 
	JOINT LHipJoint
	{
		OFFSET 0 0 0
		CHANNELS 3 Zrotation Yrotation Xrotation
		JOINT LeftHip
		{
			OFFSET 1.51378 -1.89840 0.47569
			CHANNELS 3 Zrotation Yrotation Xrotation
			JOINT LeftKnee
			{
				OFFSET 2.53380 -6.96157 0.00000
				CHANNELS 3 Zrotation Yrotation Xrotation
				JOINT LeftAnkle
				{
					OFFSET 2.74874 -7.55212 0.00000
					CHANNELS 3 Zrotation Yrotation Xrotation
					JOINT LeftToe
					{
						OFFSET 0.18263 -0.50178 1.99677
						CHANNELS 3 Zrotation Yrotation Xrotation
						End Site
						{
							OFFSET 0.00000 -0.00000 1.03711
						}
					}
				}
			}
		}
	}
	JOINT RHipJoint
	{
		OFFSET 0 0 0
		CHANNELS 3 Zrotation Yrotation Xrotation
		JOINT RightHip
		{
			OFFSET -1.43037 -1.89840 0.47569
			CHANNELS 3 Zrotation Yrotation Xrotation
			JOINT RightKnee
			{
				OFFSET -2.69849 -7.41406 0.00000
				CHANNELS 3 Zrotation Yrotation Xrotation
				JOINT RightAnkle
				{
					OFFSET -2.69369 -7.40087 0.00000
					CHANNELS 3 Zrotation Yrotation Xrotation
					JOINT RightToe
					{
						OFFSET -0.28932 -0.79491 2.04975
						CHANNELS 3 Zrotation Yrotation Xrotation
						End Site
						{
							OFFSET 0.00009 0.00010 1.09536
						}
					}
				}
			}
		}
	}
	JOINT lowerback
	{
		OFFSET 0 0 0
		CHANNELS 3 Zrotation Yrotation Xrotation
		JOINT Chest
		{
			OFFSET 0.01912 1.94784 -0.02419
			CHANNELS 3 Zrotation Yrotation Xrotation
			JOINT Chest2
			{
				OFFSET 0.07565 1.94258 0.01909
				CHANNELS 3 Zrotation Yrotation Xrotation
				JOINT lowerneck
				{
					OFFSET 0 0 0
					CHANNELS 3 Zrotation Yrotation Xrotation
					JOINT Neck
					{
						OFFSET -0.07010 1.86195 0.18976
						CHANNELS 3 Zrotation Yrotation Xrotation
						JOINT Head
						{
							OFFSET 0.02284 1.86595 -0.31497
							CHANNELS 3 Zrotation Yrotation Xrotation
							End Site
							{
								OFFSET 0.01200 1.90122 -0.12838
							}
						}
					}
				}
				JOINT LeftCollar
				{
					OFFSET 0 0 0
					CHANNELS 3 Zrotation Yrotation Xrotation
					JOINT LeftShoulder
					{
						OFFSET 3.39189 0.96331 -0.10437
CHANNELS 3 Zrotation Xrotation Yrotation
						JOINT LeftElbow
						{
OFFSET 0 -5.148450 0.000000
CHANNELS 3 Zrotation Xrotation Yrotation
							JOINT LeftWrist
							{
OFFSET 0 -3.436740 -0.000000
CHANNELS 3 Zrotation Xrotation Yrotation
								JOINT lhand
								{
									OFFSET 0 0 0
CHANNELS 3 Zrotation Xrotation Yrotation
									JOINT LFingers
									{
OFFSET 0 -0.588710 0.000000
CHANNELS 3 Zrotation Xrotation Yrotation
										End Site
										{
OFFSET 0 -0.474630 0.000000
										}
									}
								}
								JOINT LThumb
								{
OFFSET 0 0.000000 0.000000
CHANNELS 3 Zrotation Xrotation Yrotation
									End Site
									{
OFFSET 0 -0.481880 0.481880
									}
								}
							}
						}
					}
				}
				JOINT RightCollar
				{
					OFFSET 0 0 0
					CHANNELS 3 Zrotation Yrotation Xrotation
					JOINT RightShoulder
					{
						OFFSET -3.34934 1.18831 -0.19928
CHANNELS 3 Zrotation Xrotation Yrotation
						JOINT RightElbow
						{
OFFSET 0 -5.421850 0.000000
CHANNELS 3 Zrotation Xrotation Yrotation
							JOINT RightWrist
							{
OFFSET 0 -3.513170 -0.000000
CHANNELS 3 Zrotation Xrotation Yrotation
								JOINT rhand
								{
									OFFSET 0 0 0
CHANNELS 3 Zrotation Xrotation Yrotation
									JOINT RFingers
									{
OFFSET 0 -0.663190 0.000000
CHANNELS 3 Zrotation Xrotation Yrotation
										End Site
										{
OFFSET 0 -0.534680 0.000000
										}
									}
								}
								JOINT RThumb
								{
OFFSET 0 0.000000 0.000000
CHANNELS 3 Zrotation Xrotation Yrotation
									End Site
									{
OFFSET 0 -0.542840 0.542840
									}
								}
							}
						}
					}
				}
			}
		}
	}
}
MOTION
Frames: 9
Frame Time: 0.008333333333333333
-4.039141 17.850825 -8.582499 -0.477593 14.055577 -350.851980 0.000000 0.000000 0.000000 -7.952634 -8.182241 -17.647517 6.775495 15.139492 48.019396 0.279636 4.052726 -12.319269 0.488600 -4.479297 -12.429707 0.000000 0.000000 0.000000 28.145868 1.799529 -26.448352 -4.234930 -12.466604 37.403193 -0.555673 -18.272614 -30.049214 -0.054010 -1.499313 4.123851 1.204843 2.363731 2.961525 2.134927 3.180353 2.019852 1.429723 1.591247 0.356966 2.728949 14.891851 -5.134754 -11.752055 24.885728 28.685515 -1.489016 10.534013 12.327561 0.000000 0.000000 0.000000 -1.602708 2.277508 -15.784800 26.399882 -37.600810 9.130545 16.994625 -6.934254 -27.639162 0.000000 0.000000 0.000000 -7.125000 0.000000 0.000000 -14.988599 58.050579 4.857823 0.000000 0.000000 0.000000 -1.828449 11.056165 20.489519 -32.936385 -43.280703 -13.378574 -30.979907 -20.936702 -9.280711 0.000000 0.000000 0.000000 7.125000 0.000000 0.000000 -2.866725 19.195881 -1.766954
-3.459141 17.684434 -9.567351 -1.011261 21.385639 -350.224528 0.000000 0.000000 0.000000 -8.102618 -10.840755 -10.574446 3.589718 11.592013 34.305317 0.720511 -0.682278 -15.813236 3.102567 -10.859027 -31.806310 0.000000 0.000000 0.000000 25.807418 0.094985 -34.099810 -5.417367 -13.838850 42.595924 -0.439404 -19.448157 -30.664575 -0.295654 -3.494478 9.658876 1.471859 2.325943 2.415270 2.752335 3.133963 1.726794 1.931118 1.569958 0.342596 2.272340 12.787641 -5.972630 -11.809640 22.131870 29.233402 -1.810169 9.200850 12.393793 0.000000 0.000000 0.000000 -3.381887 3.133374 -17.695209 25.792588 -37.002964 8.762573 19.465209 -5.632359 -28.817135 0.000000 0.000000 0.000000 -7.125000 0.000000 0.000000 -13.058397 59.766842 4.756051 0.000000 0.000000 0.000000 -3.856410 9.563919 17.607397 -30.284301 -41.135896 -11.596262 -31.043185 -21.066674 -9.714147 0.000000 0.000000 0.000000 7.125000 0.000000 0.000000 -2.871658 18.688663 -1.802319
-2.943654 17.632135 -10.580892 0.472640 24.674616 -347.480105 0.000000 0.000000 0.000000 -13.173767 -7.423656 -13.614023 2.339865 9.540613 27.501665 1.221440 2.255804 -21.801421 1.331687 -7.306063 -20.625952 0.000000 0.000000 0.000000 20.942880 0.822962 -40.886523 -6.086872 -14.512037 45.329433 0.110737 -21.445161 -29.486049 -0.828826 -5.802665 16.214454 -0.716061 2.453156 2.319161 2.195139 3.272507 0.919900 2.558252 1.636400 -0.523992 2.539738 11.529031 -6.841311 -12.509216 20.504045 29.056748 -2.292095 8.393412 12.464497 0.000000 0.000000 0.000000 -3.228841 5.276835 -19.324709 24.870731 -36.070766 8.214031 19.700797 -5.570072 -29.010787 0.000000 0.000000 0.000000 -7.125000 0.000000 0.000000 -12.922063 60.013658 4.781999 0.000000 0.000000 0.000000 -5.302368 5.728364 15.886744 -26.924121 -38.106425 -9.452422 -30.376274 -18.316175 -10.536613 0.000000 0.000000 0.000000 7.125000 0.000000 0.000000 -2.328333 17.819305 -1.505371
-2.634083 17.664497 -11.408412 -0.286004 27.888164 -347.316391 0.000000 0.000000 0.000000 -13.843993 -8.756246 -16.590753 2.237708 9.344576 26.879274 1.387197 0.091831 -22.315894 0.712209 -5.392997 -15.032942 0.000000 0.000000 0.000000 19.067904 3.910502 -41.379696 -6.251778 -14.667887 45.983980 -1.334372 -17.024369 -33.635286 -0.462543 -4.355606 12.080405 -0.655458 2.529098 3.196709 2.409517 3.380956 1.073215 2.703632 1.692964 -0.872232 1.080462 10.012208 -9.409581 -13.030714 18.864235 29.124366 -2.358625 7.307734 12.782823 0.000000 0.000000 0.000000 -2.723582 4.627547 -17.672011 20.581793 -31.335996 5.831389 19.394496 -2.893845 -28.827337 0.000000 0.000000 0.000000 -7.125000 0.000000 0.000000 -13.142039 59.760370 4.785147 0.000000 0.000000 0.000000 -6.203207 2.294275 15.262691 -25.354624 -36.563951 -8.500432 -31.865821 -16.854752 -10.519399 0.000000 0.000000 0.000000 7.125000 0.000000 0.000000 -3.369236 17.659187 -2.192954
-2.454114 17.739782 -11.985908 -2.024624 28.644862 -348.740112 0.000000 0.000000 0.000000 -13.351250 -11.648321 -17.373691 2.427049 9.704044 28.023536 1.244412 1.642822 -21.727715 0.412700 -4.123443 -11.424274 0.000000 0.000000 0.000000 20.469454 7.876757 -39.354562 -7.855328 -16.011443 52.039319 -2.326697 -3.599997 -30.280176 -0.363135 3.849341 -10.655744 -0.211867 2.877146 3.152646 2.824953 3.857908 1.460550 2.876876 1.927999 -0.474605 0.317535 8.520396 -10.491043 -13.357644 16.997225 29.112738 -2.606783 6.303486 12.795720 0.000000 0.000000 0.000000 -2.404433 4.723371 -12.826912 18.045042 -28.214845 4.570524 19.268779 -0.423964 -28.168310 0.000000 0.000000 0.000000 -7.125000 0.000000 0.000000 -12.876300 59.079832 4.476355 0.000000 0.000000 0.000000 -7.067017 0.336204 19.513559 -24.815336 -36.014502 -8.181101 -32.200109 -15.357217 -12.329884 0.000000 0.000000 0.000000 7.125000 0.000000 0.000000 -3.404534 15.513330 -2.374375
-2.372837 17.719832 -12.293897 -2.019120 29.955883 -349.697342 0.000000 0.000000 0.000000 -13.845538 -12.050308 -18.134626 2.632058 10.074145 29.217175 1.308339 -0.400807 -21.508140 0.247996 -3.203786 -8.846784 0.000000 0.000000 0.000000 22.480084 10.538555 -33.893220 -8.882186 -16.731298 55.681921 -2.321978 2.853059 -28.108506 -0.689061 5.305822 -14.783050 -1.573275 2.781829 2.601318 2.928851 3.697605 1.346047 3.777768 1.844899 -0.367703 -0.481854 6.923888 -11.115251 -12.295623 14.522426 29.304010 -2.443893 5.191123 12.588048 0.000000 0.000000 0.000000 -1.695035 5.797886 -9.895333 17.004164 -26.863308 4.089254 16.004553 -1.672511 -25.025801 0.000000 0.000000 0.000000 -7.125000 0.000000 0.000000 -14.557871 55.288879 3.734435 0.000000 0.000000 0.000000 -6.411586 0.733802 21.461670 -26.912547 -38.095671 -9.445075 -30.207999 -14.523369 -11.913102 0.000000 0.000000 0.000000 7.125000 0.000000 0.000000 -2.081953 16.266848 -1.416371
-2.282940 17.674914 -12.432479 -0.862283 32.763543 -350.085811 0.000000 0.000000 0.000000 -15.231208 -12.064923 -18.147591 2.740075 10.261939 29.829195 1.401894 -2.492276 -21.710527 0.480775 -4.446334 -12.335886 0.000000 0.000000 0.000000 24.370013 9.274978 -25.920835 -7.178952 -15.480700 49.547827 -2.267303 4.972932 -27.377418 -0.329162 3.685750 -10.194415 -2.072732 2.360639 2.146405 2.456638 3.126742 0.971853 3.601795 1.562852 -0.453049 -1.512628 5.204196 -11.984020 -10.711706 11.961343 30.341318 -2.049519 4.030047 12.783972 0.000000 0.000000 0.000000 -1.501942 5.265835 -7.605058 16.532464 -26.237318 3.878372 20.741585 0.870739 -28.868497 0.000000 0.000000 0.000000 -7.125000 0.000000 0.000000 -11.686985 60.119942 4.346498 0.000000 0.000000 0.000000 -4.311394 2.510435 20.533723 -26.762037 -37.951278 -9.352368 -30.685887 -15.532654 -12.145787 0.000000 0.000000 0.000000 7.125000 0.000000 0.000000 -2.387627 15.937688 -1.641697
-2.235323 17.644571 -12.414629 -0.389107 31.871444 -349.685666 0.000000 0.000000 0.000000 -15.892182 -11.163849 -18.765934 2.868796 10.479472 30.543896 1.451071 -3.017545 -21.991709 0.474931 -4.418811 -12.258198 0.000000 0.000000 0.000000 25.688480 9.358251 -20.476158 -4.794455 -13.148269 39.926496 -2.833338 0.218839 -31.858944 -0.020539 -0.923798 2.539266 -2.609327 2.669750 1.000894 2.146091 3.547441 0.504800 3.612323 1.776712 -0.336851 -2.423636 3.625496 -12.142015 -10.409845 9.677199 29.841780 -2.107697 2.962111 12.396134 0.000000 0.000000 0.000000 -2.374700 4.415331 -6.266311 17.473036 -27.477194 4.303364 15.988325 -3.737048 -26.266414 0.000000 0.000000 0.000000 -7.125000 0.000000 0.000000 -15.239848 56.498061 4.367545 0.000000 0.000000 0.000000 -2.722585 4.139634 21.421861 -23.936832 -35.097073 -7.670373 -30.547123 -16.060197 -12.679017 0.000000 0.000000 0.000000 7.125000 0.000000 0.000000 -2.237881 15.346965 -1.567288
-2.263770 17.612696 -12.439269 -0.973378 29.872641 -349.633716 0.000000 0.000000 0.000000 -15.410690 -10.868754 -20.844909 3.509279 11.476415 33.904798 1.492268 -1.349039 -22.706904 0.553027 -4.763873 -13.236224 0.000000 0.000000 0.000000 25.746791 10.227365 -19.165766 -4.268699 -12.509599 37.559497 -2.855427 3.587981 -31.141243 -0.153796 -2.526699 6.963705 -1.730362 2.594154 1.280529 2.282088 3.453451 0.484747 3.247348 1.731924 -0.463076 -2.433469 3.384271 -12.679657 -11.323811 9.463715 28.890280 -2.456112 2.768132 12.177702 0.000000 0.000000 0.000000 -3.737147 2.649854 -6.850944 18.990799 -29.406840 5.026482 18.317939 -3.250376 -28.000334 0.000000 0.000000 0.000000 -7.125000 0.000000 0.000000 -13.797302 58.699473 4.673570 0.000000 0.000000 0.000000 -1.395048 4.426990 21.887654 -21.278431 -32.151749 -6.197479 -29.303723 -14.006773 -11.132219 0.000000 0.000000 0.000000 7.125000 0.000000 0.000000 -1.526779 17.266612 -1.005271
